<svg width="61" height="39" viewBox="0 0 61 39" fill="none" xmlns="http://www.w3.org/2000/svg">
<path fill-rule="evenodd" clip-rule="evenodd" d="M5.92216 32.725C9.4009 36.1634 14.2068 38.29 19.5152 38.29C24.8235 38.29 29.6293 36.1634 33.108 32.725L60.2939 5.85506C56.8152 2.41669 52.0093 0.290039 46.701 0.290039C41.3926 0.290039 36.5868 2.41669 33.1081 5.85501L33.108 5.85506C29.6293 2.41669 24.8235 0.290039 19.5152 0.290039C8.10786 0.290039 0.889617 8.76747 0.293945 19.5718C0.369483 24.7066 2.50585 29.3484 5.92216 32.725Z" fill="#E42E2C"/>
<path fill-rule="evenodd" clip-rule="evenodd" d="M33.2351 5.87847C29.7429 2.42564 24.9185 0.290039 19.5896 0.290039C8.13812 0.290039 0.891924 8.80314 0.293945 19.6529C0.369776 24.8093 2.51442 29.4706 5.94395 32.8615L33.2351 5.87847Z" fill="url(#paint0_linear_1_420)"/>
<defs>
<linearGradient id="paint0_linear_1_420" x1="2.66154" y1="22.3045" x2="22.6154" y2="43.0674" gradientUnits="userSpaceOnUse">
<stop stop-opacity="0.01"/>
<stop offset="0.102712" stop-opacity="0.0536334"/>
<stop offset="0.196571" stop-opacity="0.105632"/>
<stop offset="0.3031" stop-opacity="0.191599"/>
<stop offset="0.386504" stop-opacity="0.24536"/>
<stop offset="1"/>
</linearGradient>
</defs>
</svg>
