<svg width="154" height="98" viewBox="0 0 154 98" fill="none" xmlns="http://www.w3.org/2000/svg">
<path fill-rule="evenodd" clip-rule="evenodd" d="M14.8519 83.6481C23.7227 92.5155 35.9777 98 49.5141 98C63.0503 98 75.3052 92.5155 84.1758 83.6481L153.5 14.3519C144.629 5.48453 132.374 0 118.838 0C105.302 0 93.0468 5.48453 84.1761 14.3518L84.176 14.3519C75.3052 5.48453 63.0503 0 49.5142 0C20.4255 0 2.01896 21.8629 0.5 49.7266C0.692621 62.969 6.14037 74.9399 14.8519 83.6481Z" fill="white"/>
<path fill-rule="evenodd" clip-rule="evenodd" d="M84.5 14.4123C75.5949 5.5076 63.2926 0 49.704 0C20.5027 0 2.02485 21.9548 0.5 49.9358C0.693367 63.2339 6.16221 75.2551 14.9075 84L84.5 14.4123Z" fill="url(#paint0_linear_1_427)"/>
<defs>
<linearGradient id="paint0_linear_1_427" x1="6.53738" y1="56.7742" x2="58.0171" y2="109.74" gradientUnits="userSpaceOnUse">
<stop stop-opacity="0.01"/>
<stop offset="0.102712" stop-opacity="0.0536334"/>
<stop offset="0.196571" stop-opacity="0.105632"/>
<stop offset="0.3031" stop-opacity="0.191599"/>
<stop offset="0.386504" stop-opacity="0.24536"/>
<stop offset="1"/>
</linearGradient>
</defs>
</svg>
